<?xml version="1.0" encoding="UTF-8" standalone="no"?><!DOCTYPE svg PUBLIC "-//W3C//DTD SVG 1.1//EN" "http://www.w3.org/Graphics/SVG/1.1/DTD/svg11.dtd"><svg width="100%" height="100%" viewBox="0 0 351 92" version="1.1" xmlns="http://www.w3.org/2000/svg" xmlns:xlink="http://www.w3.org/1999/xlink" xml:space="preserve" xmlns:serif="http://www.serif.com/" style="fill-rule:evenodd;clip-rule:evenodd;stroke-linejoin:round;stroke-miterlimit:2;"><g id="LOGO"><path d="M96.466,55.484l0,11.271l1.191,0l0,-3.574l3.028,0c0.311,0 0.612,-0.017 0.902,-0.049l2.576,3.623l1.304,0l-2.754,-3.864c0.828,-0.269 1.463,-0.705 1.909,-1.313c0.445,-0.606 0.668,-1.349 0.668,-2.23c0,-1.201 -0.408,-2.147 -1.224,-2.835c-0.815,-0.685 -1.943,-1.029 -3.381,-1.029l-4.219,0Zm1.191,1.029l2.995,0c1.117,0 1.97,0.246 2.561,0.734c0.59,0.489 0.886,1.189 0.886,2.101c0,0.891 -0.296,1.583 -0.886,2.078c-0.591,0.493 -1.444,0.74 -2.561,0.74l-2.995,0l0,-5.653Z" style="fill:url(#_Linear1);fill-rule:nonzero;"/><path d="M111.328,55.484l0,11.271l7.972,0l0,-1.03l-6.78,0l0,-4.187l5.829,0l0,-1.014l-5.829,0l0,-4.011l6.537,0l0,-1.029l-7.729,0Z" style="fill:url(#_Linear2);fill-rule:nonzero;"/><rect x="125.321" y="55.483" width="1.192" height="11.272" style="fill:url(#_Linear3);"/><path d="M144.129,55.484l-4.848,8.357l-4.895,-8.357l-0.982,0l0,11.271l1.143,0l0,-8.969l4.428,7.537l0.564,0l4.429,-7.585l0,9.017l1.143,0l0,-11.271l-0.982,0Z" style="fill:url(#_Linear4);fill-rule:nonzero;"/><path d="M155.352,55.484l-5.154,11.271l1.241,0l1.352,-3.011l6.28,0l1.353,3.011l1.256,0l-5.153,-11.271l-1.175,0Zm0.579,1.24l2.705,6.054l-5.41,0l2.705,-6.054Z" style="fill:url(#_Linear5);fill-rule:nonzero;"/><path d="M168.507,56.128c-0.902,0.493 -1.61,1.177 -2.125,2.053c-0.515,0.875 -0.773,1.854 -0.773,2.939c0,1.084 0.258,2.063 0.773,2.938c0.515,0.876 1.223,1.559 2.125,2.053c0.902,0.495 1.916,0.741 3.043,0.741c0.795,0 1.552,-0.124 2.271,-0.37c0.719,-0.248 1.342,-0.602 1.868,-1.063l0,-4.299l-1.144,0l0,3.8c-0.804,0.579 -1.786,0.869 -2.946,0.869c-0.912,0 -1.734,-0.203 -2.464,-0.612c-0.73,-0.407 -1.304,-0.966 -1.723,-1.674c-0.419,-0.709 -0.627,-1.503 -0.627,-2.383c0,-0.881 0.208,-1.677 0.627,-2.392c0.419,-0.714 0.996,-1.271 1.731,-1.675c0.736,-0.402 1.559,-0.604 2.472,-0.604c1.374,0 2.506,0.44 3.397,1.322l0.741,-0.757c-0.494,-0.538 -1.1,-0.943 -1.82,-1.216c-0.719,-0.275 -1.507,-0.411 -2.367,-0.411c-1.137,0 -2.157,0.247 -3.059,0.741Z" style="fill:url(#_Linear6);fill-rule:nonzero;"/><rect x="182.274" y="55.483" width="1.192" height="11.272" style="fill:url(#_Linear7);"/><path d="M198.601,55.484l0,9.146l-7.261,-9.146l-0.983,0l0,11.271l1.192,0l0,-9.146l7.246,9.146l0.983,0l0,-11.271l-1.177,0Z" style="fill:url(#_Linear8);fill-rule:nonzero;"/><rect x="206.669" y="55.483" width="1.192" height="11.272" style="fill:url(#_Linear9);"/><path d="M222.997,55.484l0,9.146l-7.262,-9.146l-0.983,0l0,11.271l1.191,0l0,-9.146l7.246,9.146l0.983,0l0,-11.271l-1.175,0Z" style="fill:url(#_Linear10);fill-rule:nonzero;"/><path d="M232.964,56.128c-0.903,0.493 -1.611,1.177 -2.127,2.053c-0.513,0.875 -0.772,1.854 -0.772,2.939c0,1.084 0.259,2.063 0.772,2.938c0.516,0.876 1.224,1.559 2.127,2.053c0.901,0.495 1.916,0.741 3.043,0.741c0.795,0 1.552,-0.124 2.271,-0.37c0.719,-0.248 1.341,-0.602 1.867,-1.063l0,-4.299l-1.143,0l0,3.8c-0.804,0.579 -1.787,0.869 -2.946,0.869c-0.914,0 -1.735,-0.203 -2.465,-0.612c-0.729,-0.407 -1.304,-0.966 -1.722,-1.674c-0.419,-0.709 -0.627,-1.503 -0.627,-2.383c0,-0.881 0.208,-1.677 0.627,-2.392c0.418,-0.714 0.995,-1.271 1.731,-1.675c0.735,-0.402 1.559,-0.604 2.471,-0.604c1.374,0 2.507,0.44 3.397,1.322l0.742,-0.757c-0.494,-0.538 -1.101,-0.943 -1.82,-1.216c-0.719,-0.275 -1.508,-0.411 -2.367,-0.411c-1.138,0 -2.158,0.247 -3.059,0.741Z" style="fill:url(#_Linear11);fill-rule:nonzero;"/><rect x="254.17" y="55.483" width="1.193" height="11.272" style="fill:url(#_Linear12);"/><path d="M262.254,55.484l0,11.271l4.589,0c1.192,0 2.243,-0.238 3.156,-0.716c0.912,-0.477 1.621,-1.143 2.125,-1.997c0.505,-0.853 0.757,-1.828 0.757,-2.922c0,-1.096 -0.252,-2.07 -0.757,-2.924c-0.504,-0.852 -1.213,-1.518 -2.125,-1.996c-0.913,-0.477 -1.964,-0.716 -3.156,-0.716l-4.589,0Zm1.191,1.029l3.333,0c0.987,0 1.852,0.197 2.593,0.589c0.741,0.392 1.315,0.934 1.723,1.626c0.408,0.693 0.613,1.49 0.613,2.392c0,0.901 -0.205,1.699 -0.613,2.391c-0.408,0.692 -0.982,1.234 -1.723,1.626c-0.741,0.392 -1.606,0.588 -2.593,0.588l-3.333,0l0,-9.212Z" style="fill:url(#_Linear13);fill-rule:nonzero;"/><path d="M278.774,55.484l0,11.271l7.972,0l0,-1.03l-6.78,0l0,-4.187l5.829,0l0,-1.014l-5.829,0l0,-4.011l6.538,0l0,-1.029l-7.73,0Z" style="fill:url(#_Linear14);fill-rule:nonzero;"/><path d="M301.011,55.484l0,9.146l-7.262,-9.146l-0.982,0l0,11.271l1.192,0l0,-9.146l7.246,9.146l0.982,0l0,-11.271l-1.176,0Z" style="fill:url(#_Linear15);fill-rule:nonzero;"/><path d="M307.308,55.484l0,1.029l3.961,0l0,10.242l1.191,0l0,-10.242l3.962,0l0,-1.029l-9.114,0Z" style="fill:url(#_Linear16);fill-rule:nonzero;"/><rect x="321.542" y="55.483" width="1.192" height="11.272" style="fill:url(#_Linear17);"/><path d="M327.854,55.484l0,1.029l3.961,0l0,10.242l1.191,0l0,-10.242l3.962,0l0,-1.029l-9.114,0Z" style="fill:url(#_Linear18);fill-rule:nonzero;"/><path d="M349.189,55.484l-3.865,6.328l-3.864,-6.328l-1.273,0l4.509,7.374l0,3.897l1.176,0l0,-3.897l4.509,-7.374l-1.192,0Z" style="fill:url(#_Linear19);fill-rule:nonzero;"/><rect x="96.466" y="25.246" width="5.313" height="22.958" style="fill:#091c40;"/><path d="M130.739,25.246l0,22.958l-4.362,0l-11.446,-13.939l0,13.939l-5.248,0l0,-22.958l4.395,0l11.413,13.939l0,-13.939l5.248,0Z" style="fill:#091c40;fill-rule:nonzero;"/><path d="M148.81,43.842c2.296,0 4.127,-0.64 5.494,-1.918c1.366,-1.28 2.049,-3.013 2.049,-5.199c0,-2.186 -0.683,-3.92 -2.049,-5.198c-1.367,-1.28 -3.198,-1.919 -5.494,-1.919l-4.854,0l0,14.234l4.854,0Zm-10.167,-18.596l10.43,0c2.492,0 4.695,0.475 6.608,1.427c1.913,0.951 3.4,2.29 4.461,4.017c1.06,1.728 1.59,3.739 1.59,6.035c0,2.296 -0.53,4.307 -1.59,6.034c-1.061,1.728 -2.548,3.067 -4.461,4.018c-1.913,0.951 -4.116,1.427 -6.608,1.427l-10.43,0l0,-22.958Z" style="fill:#091c40;fill-rule:nonzero;"/><rect x="168.193" y="25.246" width="5.313" height="22.958" style="fill:#091c40;"/><path d="M186.051,47.073c-1.892,-1.018 -3.378,-2.427 -4.46,-4.231c-1.083,-1.804 -1.624,-3.843 -1.624,-6.117c0,-2.274 0.541,-4.313 1.624,-6.117c1.082,-1.804 2.568,-3.214 4.46,-4.231c1.891,-1.016 4.018,-1.525 6.379,-1.525c1.989,0 3.788,0.35 5.395,1.05c1.608,0.7 2.957,1.705 4.051,3.017l-3.411,3.149c-1.553,-1.793 -3.476,-2.69 -5.772,-2.69c-1.422,0 -2.69,0.312 -3.805,0.935c-1.115,0.623 -1.984,1.492 -2.608,2.608c-0.623,1.114 -0.934,2.383 -0.934,3.804c0,1.421 0.311,2.689 0.934,3.805c0.624,1.114 1.493,1.984 2.608,2.607c1.115,0.623 2.383,0.935 3.805,0.935c2.296,0 4.219,-0.908 5.772,-2.723l3.411,3.149c-1.094,1.334 -2.449,2.35 -4.067,3.051c-1.618,0.699 -3.422,1.048 -5.411,1.048c-2.34,0 -4.456,-0.507 -6.347,-1.524" style="fill:#091c40;fill-rule:nonzero;"/><rect x="207.91" y="25.246" width="5.313" height="22.958" style="fill:#091c40;"/><path d="M235.919,43.137c1.093,-0.623 1.951,-1.493 2.574,-2.607c0.623,-1.116 0.935,-2.384 0.935,-3.805c0,-1.421 -0.312,-2.69 -0.935,-3.804c-0.623,-1.116 -1.481,-1.985 -2.574,-2.608c-1.094,-0.623 -2.318,-0.935 -3.674,-0.935c-1.356,0 -2.58,0.312 -3.673,0.935c-1.093,0.623 -1.952,1.492 -2.575,2.608c-0.623,1.114 -0.934,2.383 -0.934,3.804c0,1.421 0.311,2.689 0.934,3.805c0.623,1.114 1.482,1.984 2.575,2.607c1.093,0.623 2.317,0.935 3.673,0.935c1.356,0 2.58,-0.312 3.674,-0.935m-10.118,3.919c-1.914,-1.028 -3.411,-2.443 -4.493,-4.247c-1.083,-1.804 -1.624,-3.832 -1.624,-6.084c0,-2.252 0.541,-4.28 1.624,-6.084c1.082,-1.804 2.579,-3.219 4.493,-4.247c1.913,-1.028 4.06,-1.542 6.444,-1.542c2.383,0 4.527,0.514 6.429,1.542c1.902,1.028 3.399,2.443 4.493,4.247c1.093,1.804 1.64,3.832 1.64,6.084c0,2.252 -0.547,4.28 -1.64,6.084c-1.094,1.804 -2.591,3.219 -4.493,4.247c-1.902,1.028 -4.046,1.541 -6.429,1.541c-2.384,0 -4.531,-0.513 -6.444,-1.541" style="fill:#091c40;fill-rule:nonzero;"/><path d="M250.857,47.926c-0.273,-0.273 -0.41,-0.607 -0.41,-1.001c0,-0.394 0.137,-0.722 0.41,-0.983c0.273,-0.263 0.596,-0.394 0.968,-0.394c0.371,0 0.693,0.131 0.968,0.394c0.272,0.261 0.409,0.589 0.409,0.983c0,0.394 -0.137,0.728 -0.409,1.001c-0.275,0.273 -0.597,0.41 -0.968,0.41c-0.372,0 -0.695,-0.137 -0.968,-0.41" style="fill:#091c40;fill-rule:nonzero;"/><path d="M264.944,26.755l-8.265,0l0,-1.509l18.203,0l0,1.509l-8.265,0l0,21.449l-1.673,0l0,-21.449Z" style="fill:#091c40;fill-rule:nonzero;"/><path d="M297.315,46.695l0,1.509l-15.841,0l0,-22.958l15.35,0l0,1.509l-13.678,0l0,9.051l12.233,0l0,1.476l-12.233,0l0,9.413l14.168,0Z" style="fill:#091c40;fill-rule:nonzero;"/><path d="M309.368,46.859c-1.804,-1.005 -3.226,-2.394 -4.264,-4.165c-1.039,-1.771 -1.558,-3.76 -1.558,-5.969c0,-2.208 0.519,-4.198 1.558,-5.97c1.038,-1.771 2.46,-3.159 4.264,-4.165c1.804,-1.005 3.831,-1.508 6.084,-1.508c1.661,0 3.191,0.268 4.591,0.803c1.399,0.537 2.592,1.328 3.575,2.378l-1.05,1.082c-1.836,-1.814 -4.186,-2.722 -7.051,-2.722c-1.924,0 -3.673,0.438 -5.248,1.312c-1.574,0.875 -2.809,2.083 -3.706,3.624c-0.896,1.542 -1.344,3.263 -1.344,5.166c0,1.902 0.448,3.624 1.344,5.165c0.897,1.542 2.132,2.75 3.706,3.624c1.575,0.875 3.324,1.313 5.248,1.313c2.842,0 5.193,-0.919 7.051,-2.756l1.05,1.082c-0.983,1.05 -2.181,1.849 -3.591,2.395c-1.41,0.546 -2.935,0.82 -4.575,0.82c-2.253,0 -4.28,-0.503 -6.084,-1.509" style="fill:#091c40;fill-rule:nonzero;"/><path d="M350.381,25.246l0,22.958l-1.673,0l0,-10.921l-15.349,0l0,10.921l-1.672,0l0,-22.958l1.672,0l0,10.561l15.349,0l0,-10.561l1.673,0Z" style="fill:#091c40;fill-rule:nonzero;"/><path d="M0,22.926l0,45.853l39.708,22.925l39.711,-22.925l0,-45.853l-39.711,-22.926l-39.708,22.926Zm40.912,4.337l0,-23.789l34.896,20.147l-20.602,11.894l-14.294,-8.252Zm-37.302,-3.642l34.896,-20.147l0,23.789l-14.294,8.252l-20.602,-11.894Zm52.799,30.484l0,-16.505l20.602,-11.895l0,40.294l-20.602,-11.894Zm-54.002,-28.4l20.602,11.895l0,16.505l-20.602,11.894l0,-40.294Zm24.212,11.2l13.089,-7.558l13.091,7.558l-13.091,7.558l-13.089,-7.558Zm14.293,9.642l13.091,-7.558l0,15.116l-13.091,7.557l0,-15.115Zm-15.497,7.558l0,-15.116l13.091,7.558l0,15.115l-13.091,-7.557Zm15.497,10.336l14.294,-8.253l20.602,11.895l-34.896,20.147l0,-23.789Zm-37.302,3.642l20.602,-11.894l14.294,8.252l0,23.789l-34.896,-20.147Z" style="fill:url(#_Linear20);fill-rule:nonzero;"/></g><defs><linearGradient id="_Linear1" x1="0" y1="0" x2="1" y2="0" gradientUnits="userSpaceOnUse" gradientTransform="matrix(200.789,0,0,200.789,111.092,61.1194)"><stop offset="0" style="stop-color:#f3c155;stop-opacity:1"/><stop offset="1" style="stop-color:#348a41;stop-opacity:1"/></linearGradient><linearGradient id="_Linear2" x1="0" y1="0" x2="1" y2="0" gradientUnits="userSpaceOnUse" gradientTransform="matrix(200.789,0,0,200.789,111.092,61.1194)"><stop offset="0" style="stop-color:#f3c155;stop-opacity:1"/><stop offset="1" style="stop-color:#348a41;stop-opacity:1"/></linearGradient><linearGradient id="_Linear3" x1="0" y1="0" x2="1" y2="0" gradientUnits="userSpaceOnUse" gradientTransform="matrix(200.789,0,0,200.789,111.092,61.1194)"><stop offset="0" style="stop-color:#f3c155;stop-opacity:1"/><stop offset="1" style="stop-color:#348a41;stop-opacity:1"/></linearGradient><linearGradient id="_Linear4" x1="0" y1="0" x2="1" y2="0" gradientUnits="userSpaceOnUse" gradientTransform="matrix(200.789,0,0,200.789,111.092,61.1194)"><stop offset="0" style="stop-color:#f3c155;stop-opacity:1"/><stop offset="1" style="stop-color:#348a41;stop-opacity:1"/></linearGradient><linearGradient id="_Linear5" x1="0" y1="0" x2="1" y2="0" gradientUnits="userSpaceOnUse" gradientTransform="matrix(200.789,0,0,200.789,111.092,61.1194)"><stop offset="0" style="stop-color:#f3c155;stop-opacity:1"/><stop offset="1" style="stop-color:#348a41;stop-opacity:1"/></linearGradient><linearGradient id="_Linear6" x1="0" y1="0" x2="1" y2="0" gradientUnits="userSpaceOnUse" gradientTransform="matrix(200.789,0,0,200.789,111.092,61.1194)"><stop offset="0" style="stop-color:#f3c155;stop-opacity:1"/><stop offset="1" style="stop-color:#348a41;stop-opacity:1"/></linearGradient><linearGradient id="_Linear7" x1="0" y1="0" x2="1" y2="0" gradientUnits="userSpaceOnUse" gradientTransform="matrix(200.789,0,0,200.789,111.092,61.1194)"><stop offset="0" style="stop-color:#f3c155;stop-opacity:1"/><stop offset="1" style="stop-color:#348a41;stop-opacity:1"/></linearGradient><linearGradient id="_Linear8" x1="0" y1="0" x2="1" y2="0" gradientUnits="userSpaceOnUse" gradientTransform="matrix(200.789,0,0,200.789,111.092,61.1194)"><stop offset="0" style="stop-color:#f3c155;stop-opacity:1"/><stop offset="1" style="stop-color:#348a41;stop-opacity:1"/></linearGradient><linearGradient id="_Linear9" x1="0" y1="0" x2="1" y2="0" gradientUnits="userSpaceOnUse" gradientTransform="matrix(200.789,0,0,200.789,111.092,61.1194)"><stop offset="0" style="stop-color:#f3c155;stop-opacity:1"/><stop offset="1" style="stop-color:#348a41;stop-opacity:1"/></linearGradient><linearGradient id="_Linear10" x1="0" y1="0" x2="1" y2="0" gradientUnits="userSpaceOnUse" gradientTransform="matrix(200.789,0,0,200.789,111.092,61.1194)"><stop offset="0" style="stop-color:#f3c155;stop-opacity:1"/><stop offset="1" style="stop-color:#348a41;stop-opacity:1"/></linearGradient><linearGradient id="_Linear11" x1="0" y1="0" x2="1" y2="0" gradientUnits="userSpaceOnUse" gradientTransform="matrix(200.789,0,0,200.789,111.092,61.1194)"><stop offset="0" style="stop-color:#f3c155;stop-opacity:1"/><stop offset="1" style="stop-color:#348a41;stop-opacity:1"/></linearGradient><linearGradient id="_Linear12" x1="0" y1="0" x2="1" y2="0" gradientUnits="userSpaceOnUse" gradientTransform="matrix(200.789,0,0,200.789,111.092,61.1194)"><stop offset="0" style="stop-color:#f3c155;stop-opacity:1"/><stop offset="1" style="stop-color:#348a41;stop-opacity:1"/></linearGradient><linearGradient id="_Linear13" x1="0" y1="0" x2="1" y2="0" gradientUnits="userSpaceOnUse" gradientTransform="matrix(200.789,0,0,200.789,111.092,61.1194)"><stop offset="0" style="stop-color:#f3c155;stop-opacity:1"/><stop offset="1" style="stop-color:#348a41;stop-opacity:1"/></linearGradient><linearGradient id="_Linear14" x1="0" y1="0" x2="1" y2="0" gradientUnits="userSpaceOnUse" gradientTransform="matrix(200.789,0,0,200.789,111.092,61.1194)"><stop offset="0" style="stop-color:#f3c155;stop-opacity:1"/><stop offset="1" style="stop-color:#348a41;stop-opacity:1"/></linearGradient><linearGradient id="_Linear15" x1="0" y1="0" x2="1" y2="0" gradientUnits="userSpaceOnUse" gradientTransform="matrix(200.789,0,0,200.789,111.092,61.1194)"><stop offset="0" style="stop-color:#f3c155;stop-opacity:1"/><stop offset="1" style="stop-color:#348a41;stop-opacity:1"/></linearGradient><linearGradient id="_Linear16" x1="0" y1="0" x2="1" y2="0" gradientUnits="userSpaceOnUse" gradientTransform="matrix(200.789,0,0,200.789,111.092,61.1194)"><stop offset="0" style="stop-color:#f3c155;stop-opacity:1"/><stop offset="1" style="stop-color:#348a41;stop-opacity:1"/></linearGradient><linearGradient id="_Linear17" x1="0" y1="0" x2="1" y2="0" gradientUnits="userSpaceOnUse" gradientTransform="matrix(200.789,0,0,200.789,111.092,61.1194)"><stop offset="0" style="stop-color:#f3c155;stop-opacity:1"/><stop offset="1" style="stop-color:#348a41;stop-opacity:1"/></linearGradient><linearGradient id="_Linear18" x1="0" y1="0" x2="1" y2="0" gradientUnits="userSpaceOnUse" gradientTransform="matrix(200.789,0,0,200.789,111.092,61.1194)"><stop offset="0" style="stop-color:#f3c155;stop-opacity:1"/><stop offset="1" style="stop-color:#348a41;stop-opacity:1"/></linearGradient><linearGradient id="_Linear19" x1="0" y1="0" x2="1" y2="0" gradientUnits="userSpaceOnUse" gradientTransform="matrix(200.789,0,0,200.789,111.092,61.1194)"><stop offset="0" style="stop-color:#f3c155;stop-opacity:1"/><stop offset="1" style="stop-color:#348a41;stop-opacity:1"/></linearGradient><linearGradient id="_Linear20" x1="0" y1="0" x2="1" y2="0" gradientUnits="userSpaceOnUse" gradientTransform="matrix(36.6417,49.619,-49.619,36.6417,20.2396,19.4871)"><stop offset="0" style="stop-color:#f3c155;stop-opacity:1"/><stop offset="1" style="stop-color:#348a41;stop-opacity:1"/></linearGradient></defs></svg>